# xmcd CD database file
#
# Track frame offsets:
#	150
#	21686
#	49527
#	76419
#	101708
#	131072
#	147274
#	165695
#	195131
#	215849
#
# Disc length: 3071 seconds
#
# Revision: 0
# Processed by: cddbd v1.5.2PL0 Copyright (c) Steve Scherf et al.
# Submitted via: CDex 1.51
#
DISCID=8e0bfd0a
DTITLE=Edu Tancredi and Bandon 33 - Venimos Tumbando
DYEAR=2007
DGENRE=Jazz
TTITLE0=El Subibaja
TTITLE1=Hocus Pocus
TTITLE2=Montevideo
TTITLE3=El germen
TTITLE4=La mama vieja
TTITLE5=Baialona
TTITLE6=Mapa del mundo
TTITLE7=Venimos tumbando
TTITLE8=Como un blues
TTITLE9=Zamba del aire
EXTD=YEAR: 2007
EXTT0=
EXTT1=
EXTT2=
EXTT3=
EXTT4=
EXTT5=
EXTT6=
EXTT7=
EXTT8=
EXTT9=
PLAYORDER=
